<svg width="141" height="141" viewBox="0 0 141 141" fill="none" xmlns="http://www.w3.org/2000/svg">
<g clip-path="url(#clip0_1_2)">
<path d="M141 85.8261V134.87H116.478H113.413H0V85.8261C0 84.1332 1.3723 82.7609 3.06522 82.7609H113.413H116.478H137.935C139.628 82.7609 141 84.1332 141 85.8261Z" fill="#B4BDBF"/>
<path d="M122.609 82.7609L113.413 134.87V141H27.5869V134.87L18.3913 82.7609H27.5869H113.413H122.609Z" fill="#9DA7A8"/>
<path d="M113.413 30.6522V141H27.587V30.6522C27.587 28.9593 28.9593 27.587 30.6522 27.587H110.348C112.041 27.587 113.413 28.9593 113.413 30.6522Z" fill="#BEC8CC"/>
<path d="M49.0435 61.3044H58.2391V70.5H49.0435V61.3044Z" fill="#A2A9AA"/>
<path d="M65.9022 61.3044H75.0978V70.5H65.9022V61.3044Z" fill="#A2A9AA"/>
<path d="M91.9565 61.3044V70.5H82.7609V61.3044H91.9565Z" fill="#A2A9AA"/>
<path d="M49.0435 79.6956H58.2391V88.8913H49.0435V79.6956Z" fill="#A2A9AA"/>
<path d="M65.9022 79.6956H75.0978V88.8913H65.9022V79.6956Z" fill="#A2A9AA"/>
<path d="M82.7609 79.6956H91.9565V88.8913H82.7609V79.6956Z" fill="#A2A9AA"/>
<path d="M91.9565 141H49.0435V98.087H91.9565V141Z" fill="#939E9D"/>
<path d="M91.9565 141H70.5V98.087H91.9565V141Z" fill="#8A9695"/>
<path d="M141 137.935C141 139.628 139.628 141 137.935 141H3.06522C1.3723 141 0 139.628 0 137.935V131.804H141V137.935Z" fill="#9DA7A8"/>
<path d="M97.9165 27.587C96.3916 41.3798 84.6996 52.1087 70.5 52.1087C56.3004 52.1087 44.6084 41.3798 43.0835 27.587H97.9165Z" fill="#B4BDBF"/>
<path d="M70.5 49.0435C56.957 49.0435 45.9783 38.0648 45.9783 24.5217C45.9783 10.9787 56.957 0 70.5 0C84.0431 0 95.0218 10.9787 95.0218 24.5217C95.0218 38.0648 84.0431 49.0435 70.5 49.0435Z" fill="#DAEDE3"/>
<path d="M84.2935 24.5217C84.2935 27.061 82.2349 29.1196 79.6956 29.1196H75.0978V33.7174C75.0978 36.2566 73.0392 38.3152 70.5 38.3152C67.9608 38.3152 65.9022 36.2566 65.9022 33.7174V29.1196H61.3043C58.7651 29.1196 56.7065 27.061 56.7065 24.5217C56.7065 21.9825 58.7651 19.9239 61.3043 19.9239H65.9022V15.3261C65.9022 12.7869 67.9608 10.7283 70.5 10.7283C73.0392 10.7283 75.0978 12.7869 75.0978 15.3261V19.9239H79.6956C82.2349 19.9239 84.2935 21.9825 84.2935 24.5217Z" fill="#C6524A"/>
<path d="M65.9022 29.1901V29.1196H61.3043C58.7651 29.1196 56.7065 27.061 56.7065 24.5217C56.7065 21.9825 58.7651 19.9239 61.3043 19.9239H65.9022V15.3261C65.9022 12.7869 67.9608 10.7283 70.5 10.7283C73.0392 10.7283 75.0978 12.7869 75.0978 15.3261V19.9239H75.1683L65.9022 29.1901Z" fill="#D3625F"/>
</g>
<defs>
<clipPath id="clip0_1_2">
<rect width="141" height="141" fill="white"/>
</clipPath>
</defs>
</svg>
